{
  "accessors": [
    {
      "bufferView": 2,
      "componentType": 5126,
      "count": 65532,
      "max": [
        1606.5693359375,
        1350.4219970703125,
        2673.46875
      ],
      "min": [
        -1721.864990234375,
        -714.6770629882813,
        -949.3270263671875
      ],
      "type": "VEC3"
    },
    {
      "bufferView": 2,
      "byteOffset": 786384,
      "componentType": 5126,
      "count": 65532,
      "max": [
        0.9999672770500183,
        1.0,
        1.0
      ],
      "min": [
        -0.9999999403953552,
        -1.0,
        -0.9999687075614929
      ],
      "type": "VEC3"
    },
    {
      "bufferView": 1,
      "componentType": 5126,
      "count": 65532,
      "max": [
        0.9981619715690613,
        0.9723619818687439
      ],
      "min": [
        0.0006430000066757202,
        0.0005460000247694552
      ],
      "type": "VEC2"
    },
    {
      "bufferView": 0,
      "componentType": 5125,
      "count": 173874,
      "type": "SCALAR"
    },
    {
      "bufferView": 2,
      "byteOffset": 1572768,
      "componentType": 5126,
      "count": 65532,
      "max": [
        1614.88330078125,
        1356.0692138671875,
        2605.23583984375
      ],
      "min": [
        -1692.818115234375,
        -730.1680908203125,
        -949.7584838867188
      ],
      "type": "VEC3"
    },
    {
      "bufferView": 2,
      "byteOffset": 2359152,
      "componentType": 5126,
      "count": 65532,
      "max": [
        1.0,
        0.999990701675415,
        0.9999737739562988
      ],
      "min": [
        -1.0,
        -0.9999898076057434,
        -0.9998809695243835
      ],
      "type": "VEC3"
    },
    {
      "bufferView": 1,
      "byteOffset": 524256,
      "componentType": 5126,
      "count": 65532,
      "max": [
        0.9981870055198669,
        0.9768610000610352
      ],
      "min": [
        0.0025710000190883875,
        0.0005520000122487545
      ],
      "type": "VEC2"
    },
    {
      "bufferView": 0,
      "byteOffset": 695496,
      "componentType": 5125,
      "count": 241896,
      "type": "SCALAR"
    },
    {
      "bufferView": 2,
      "byteOffset": 3145536,
      "componentType": 5126,
      "count": 65532,
      "max": [
        1633.743896484375,
        1342.28857421875,
        2155.5322265625
      ],
      "min": [
        -1616.2811279296875,
        -701.9486083984375,
        -917.07568359375
      ],
      "type": "VEC3"
    },
    {
      "bufferView": 2,
      "byteOffset": 3931920,
      "componentType": 5126,
      "count": 65532,
      "max": [
        0.9999752640724182,
        0.9999945759773254,
        0.999983549118042
      ],
      "min": [
        -0.999981164932251,
        -0.9999473094940186,
        -0.9999531507492065
      ],
      "type": "VEC3"
    },
    {
      "bufferView": 1,
      "byteOffset": 1048512,
      "componentType": 5126,
      "count": 65532,
      "max": [
        0.997518002986908,
        0.9993569850921631
      ],
      "min": [
        0.0006430000066757202,
        0.08032400161027908
      ],
      "type": "VEC2"
    },
    {
      "bufferView": 0,
      "byteOffset": 1663080,
      "componentType": 5125,
      "count": 282294,
      "type": "SCALAR"
    },
    {
      "bufferView": 2,
      "byteOffset": 4718304,
      "componentType": 5126,
      "count": 13029,
      "max": [
        1524.54296875,
        1354.3758544921875,
        2044.709716796875
      ],
      "min": [
        -1592.760498046875,
        -730.1680908203125,
        -936.787353515625
      ],
      "type": "VEC3"
    },
    {
      "bufferView": 2,
      "byteOffset": 4874652,
      "componentType": 5126,
      "count": 13029,
      "max": [
        0.9997797012329102,
        0.9999913573265076,
        0.9999241828918457
      ],
      "min": [
        -0.999938428401947,
        -0.999916136264801,
        -0.9997638463973999
      ],
      "type": "VEC3"
    },
    {
      "bufferView": 1,
      "byteOffset": 1572768,
      "componentType": 5126,
      "count": 13029,
      "max": [
        0.9402549862861633,
        0.9125880002975464
      ],
      "min": [
        0.011568999849259853,
        0.009390000253915787
      ],
      "type": "VEC2"
    },
    {
      "bufferView": 0,
      "byteOffset": 2792256,
      "componentType": 5125,
      "count": 50007,
      "type": "SCALAR"
    }
  ],
  "asset": {
    "extras": {
      "author": "Natural History Museum Vienna (https://sketchfab.com/NHMWien)",
      "license": "CC-BY-NC-4.0 (http://creativecommons.org/licenses/by-nc/4.0/)",
      "source": "https://sketchfab.com/3d-models/plateosaurus-skeleton-80683eb568cc46caac0649e395fa5a1b",
      "title": "Plateosaurus Skeleton"
    },
    "generator": "Sketchfab-13.97.0",
    "version": "2.0"
  },
  "bufferViews": [
    {
      "buffer": 0,
      "byteLength": 2992284,
      "name": "floatBufferViews",
      "target": 34963
    },
    {
      "buffer": 0,
      "byteLength": 1677000,
      "byteOffset": 2992284,
      "byteStride": 8,
      "name": "floatBufferViews",
      "target": 34962
    },
    {
      "buffer": 0,
      "byteLength": 5031000,
      "byteOffset": 4669284,
      "byteStride": 12,
      "name": "floatBufferViews",
      "target": 34962
    }
  ],
  "buffers": [
    {
      "byteLength": 9700284,
      "uri": "scene.bin"
    }
  ],
  "extensionsRequired": [
    "KHR_materials_pbrSpecularGlossiness"
  ],
  "extensionsUsed": [
    "KHR_materials_pbrSpecularGlossiness"
  ],
  "images": [
    {
      "uri": "textures/material_0_diffuse.png"
    }
  ],
  "materials": [
    {
      "doubleSided": true,
      "extensions": {
        "KHR_materials_pbrSpecularGlossiness": {
          "diffuseFactor": [
            1.0,
            1.0,
            1.0,
            1.0
          ],
          "diffuseTexture": {
            "index": 0
          },
          "glossinessFactor": 0.5623413251903491,
          "specularFactor": [
            0.036458301544189456,
            0.036458301544189456,
            0.036458301544189456
          ]
        }
      },
      "name": "material_0"
    }
  ],
  "meshes": [
    {
      "name": "Object_0",
      "primitives": [
        {
          "attributes": {
            "NORMAL": 1,
            "POSITION": 0,
            "TEXCOORD_0": 2
          },
          "indices": 3,
          "material": 0,
          "mode": 4
        }
      ]
    },
    {
      "name": "Object_1",
      "primitives": [
        {
          "attributes": {
            "NORMAL": 5,
            "POSITION": 4,
            "TEXCOORD_0": 6
          },
          "indices": 7,
          "material": 0,
          "mode": 4
        }
      ]
    },
    {
      "name": "Object_2",
      "primitives": [
        {
          "attributes": {
            "NORMAL": 9,
            "POSITION": 8,
            "TEXCOORD_0": 10
          },
          "indices": 11,
          "material": 0,
          "mode": 4
        }
      ]
    },
    {
      "name": "Object_3",
      "primitives": [
        {
          "attributes": {
            "NORMAL": 13,
            "POSITION": 12,
            "TEXCOORD_0": 14
          },
          "indices": 15,
          "material": 0,
          "mode": 4
        }
      ]
    }
  ],
  "nodes": [
    {
      "children": [
        1
      ],
      "matrix": [
        0.0024822584729881914,
        0.00029729924431519394,
        2.3826857263367737e-06,
        0.0,
        0.0002946939439767461,
        -0.0024576965915181492,
        -0.00035054623297126107,
        0.0,
        -3.9344484969724286e-05,
        0.0003483394083006816,
        -0.002475300226912641,
        0.0,
        0.0,
        0.0,
        0.0,
        1.0
      ],
      "name": "Sketchfab_model"
    },
    {
      "children": [
        2,
        3,
        4,
        5
      ],
      "name": "NHMW-Geo-Plateosaurus_low res.obj.cleaner.materialmerger.gles"
    },
    {
      "mesh": 0,
      "name": "Object_2"
    },
    {
      "mesh": 1,
      "name": "Object_3"
    },
    {
      "mesh": 2,
      "name": "Object_4"
    },
    {
      "mesh": 3,
      "name": "Object_5"
    }
  ],
  "samplers": [
    {
      "magFilter": 9729,
      "minFilter": 9987,
      "wrapS": 10497,
      "wrapT": 10497
    }
  ],
  "scene": 0,
  "scenes": [
    {
      "name": "Sketchfab_Scene",
      "nodes": [
        0
      ]
    }
  ],
  "textures": [
    {
      "sampler": 0,
      "source": 0
    }
  ]
}
